<svg xmlns="http://www.w3.org/2000/svg" viewBox="0 0 120 120" role="img" aria-label="Meditating figure emblem">
  <defs>
    <radialGradient id="kkvGold" cx="38%" cy="28%" r="80%">
      <stop offset="0" stop-color="#FDE68A"/>
      <stop offset="0.42" stop-color="#F6BE24"/>
      <stop offset="0.8" stop-color="#EBA200"/>
      <stop offset="1" stop-color="#CE8400"/>
    </radialGradient>
  </defs>
  <g fill="none" stroke="url(#kkvGold)" stroke-width="2">
    <circle cx="60" cy="60" r="55"/>
    <circle cx="60" cy="60" r="49" stroke-width="1.6"/>
  </g>
  <!-- raised arms meeting overhead (open almond) -->
  <path fill="url(#kkvGold)" fill-rule="evenodd" d="M60 23
    C47 42 43 55 53 62 C56 58 64 58 67 62 C77 55 73 42 60 23 Z
    M60 34 C52 47 49 56 55 61 C57 59 63 59 65 61 C71 56 68 47 60 34 Z"/>
  <!-- head -->
  <circle cx="60" cy="64" r="7.6" fill="url(#kkvGold)"/>
  <!-- seated body + crossed legs (padmasana) -->
  <path fill="url(#kkvGold)" d="M60 70
    C53.5 70 49.5 74.5 48.5 81
    C46.8 89 35 90.5 28.5 95
    C26.2 96.6 27.5 99.6 31.6 99.4
    C43 98.8 51.5 95.5 60 92.4
    C68.5 95.5 77 98.8 88.4 99.4
    C92.5 99.6 93.8 96.6 91.5 95
    C85 90.5 73.2 89 71.5 81
    C70.5 74.5 66.5 70 60 70 Z"/>
</svg>
